<svg width="1600" height="900" viewBox="0 0 1600 900" fill="none" xmlns="http://www.w3.org/2000/svg">
  <rect width="1600" height="900" rx="36" fill="#0F172A"/>
  <rect x="48" y="48" width="1504" height="804" rx="28" fill="url(#bg)"/>
  <rect x="96" y="96" width="1408" height="64" rx="18" fill="#111827" fill-opacity="0.75"/>
  <circle cx="136" cy="128" r="10" fill="#F97316"/>
  <circle cx="168" cy="128" r="10" fill="#FACC15"/>
  <circle cx="200" cy="128" r="10" fill="#22C55E"/>
  <rect x="248" y="112" width="320" height="32" rx="10" fill="#1F2937"/>
  <rect x="1248" y="112" width="200" height="32" rx="10" fill="#2563EB" fill-opacity="0.85"/>

  <rect x="96" y="208" width="392" height="604" rx="24" fill="#111827" fill-opacity="0.72"/>
  <rect x="520" y="208" width="488" height="292" rx="24" fill="#111827" fill-opacity="0.72"/>
  <rect x="1040" y="208" width="408" height="292" rx="24" fill="#111827" fill-opacity="0.72"/>
  <rect x="520" y="532" width="928" height="280" rx="24" fill="#111827" fill-opacity="0.72"/>

  <rect x="128" y="248" width="160" height="18" rx="9" fill="#E5E7EB" fill-opacity="0.92"/>
  <rect x="128" y="286" width="248" height="12" rx="6" fill="#475569"/>
  <rect x="128" y="338" width="328" height="84" rx="18" fill="#1E293B"/>
  <rect x="152" y="362" width="140" height="12" rx="6" fill="#93C5FD"/>
  <rect x="152" y="392" width="204" height="12" rx="6" fill="#64748B"/>
  <rect x="128" y="446" width="328" height="84" rx="18" fill="#1E293B"/>
  <rect x="152" y="470" width="164" height="12" rx="6" fill="#FCA5A5"/>
  <rect x="152" y="500" width="176" height="12" rx="6" fill="#64748B"/>
  <rect x="128" y="554" width="328" height="84" rx="18" fill="#1E293B"/>
  <rect x="152" y="578" width="136" height="12" rx="6" fill="#86EFAC"/>
  <rect x="152" y="608" width="192" height="12" rx="6" fill="#64748B"/>

  <rect x="552" y="248" width="220" height="18" rx="9" fill="#E5E7EB" fill-opacity="0.92"/>
  <rect x="552" y="288" width="208" height="12" rx="6" fill="#475569"/>
  <rect x="552" y="336" width="424" height="132" rx="18" fill="#1E293B"/>
  <path d="M592 422C630 388 680 406 724 360C770 312 822 320 862 346C902 372 938 360 944 330" stroke="#60A5FA" stroke-width="10" stroke-linecap="round"/>
  <circle cx="724" cy="360" r="10" fill="#60A5FA"/>
  <circle cx="862" cy="346" r="10" fill="#60A5FA"/>

  <rect x="1072" y="248" width="172" height="18" rx="9" fill="#E5E7EB" fill-opacity="0.92"/>
  <rect x="1072" y="288" width="164" height="12" rx="6" fill="#475569"/>
  <rect x="1072" y="340" width="344" height="44" rx="14" fill="#1E293B"/>
  <rect x="1096" y="356" width="132" height="12" rx="6" fill="#FDE68A"/>
  <rect x="1260" y="352" width="124" height="20" rx="10" fill="#B45309"/>
  <rect x="1072" y="400" width="344" height="44" rx="14" fill="#1E293B"/>
  <rect x="1096" y="416" width="156" height="12" rx="6" fill="#BFDBFE"/>
  <rect x="1260" y="412" width="124" height="20" rx="10" fill="#1D4ED8"/>

  <rect x="552" y="572" width="236" height="18" rx="9" fill="#E5E7EB" fill-opacity="0.92"/>
  <rect x="552" y="612" width="244" height="12" rx="6" fill="#475569"/>
  <rect x="552" y="660" width="864" height="32" rx="12" fill="#1E293B"/>
  <rect x="576" y="670" width="240" height="12" rx="6" fill="#CBD5E1"/>
  <rect x="1228" y="666" width="156" height="20" rx="10" fill="#0F766E"/>
  <rect x="552" y="708" width="864" height="32" rx="12" fill="#1E293B"/>
  <rect x="576" y="718" width="196" height="12" rx="6" fill="#CBD5E1"/>
  <rect x="1228" y="714" width="156" height="20" rx="10" fill="#7C3AED"/>
  <rect x="552" y="756" width="864" height="32" rx="12" fill="#1E293B"/>
  <rect x="576" y="766" width="284" height="12" rx="6" fill="#CBD5E1"/>
  <rect x="1228" y="762" width="156" height="20" rx="10" fill="#BE123C"/>

  <defs>
    <linearGradient id="bg" x1="48" y1="48" x2="1552" y2="852" gradientUnits="userSpaceOnUse">
      <stop stop-color="#111827"/>
      <stop offset="1" stop-color="#0B1220"/>
    </linearGradient>
  </defs>
</svg>
