<svg width="1200" height="780" viewBox="0 0 1200 780" fill="none" xmlns="http://www.w3.org/2000/svg">
  <rect width="1200" height="780" rx="44" fill="#111827"/>
  <circle cx="980" cy="130" r="170" fill="#A855F7" fill-opacity="0.18"/>
  <circle cx="180" cy="660" r="220" fill="#38BDF8" fill-opacity="0.12"/>
  <rect x="84" y="92" width="430" height="596" rx="28" fill="#F8FAFC" fill-opacity="0.08" stroke="#F8FAFC" stroke-opacity="0.14"/>
  <rect x="128" y="144" width="184" height="22" rx="11" fill="#E2E8F0" fill-opacity="0.9"/>
  <rect x="128" y="190" width="256" height="14" rx="7" fill="#CBD5E1" fill-opacity="0.55"/>
  <rect x="128" y="232" width="344" height="112" rx="20" fill="#1D4ED8" fill-opacity="0.2"/>
  <rect x="152" y="264" width="124" height="14" rx="7" fill="#93C5FD"/>
  <rect x="152" y="292" width="276" height="12" rx="6" fill="#DBEAFE" fill-opacity="0.72"/>
  <rect x="128" y="386" width="330" height="18" rx="9" fill="#E2E8F0" fill-opacity="0.22"/>
  <rect x="128" y="424" width="286" height="18" rx="9" fill="#E2E8F0" fill-opacity="0.22"/>
  <rect x="128" y="462" width="248" height="18" rx="9" fill="#E2E8F0" fill-opacity="0.22"/>
  <rect x="618" y="118" width="488" height="170" rx="30" fill="#F8FAFC" fill-opacity="0.08" stroke="#F8FAFC" stroke-opacity="0.14"/>
  <rect x="660" y="160" width="170" height="18" rx="9" fill="#F8FAFC" fill-opacity="0.86"/>
  <rect x="660" y="202" width="256" height="14" rx="7" fill="#CBD5E1" fill-opacity="0.5"/>
  <rect x="978" y="154" width="86" height="86" rx="24" fill="#A855F7" fill-opacity="0.28"/>
  <path d="M1007 198H1035L1049 180" stroke="#F5D0FE" stroke-width="18" stroke-linecap="round" stroke-linejoin="round"/>
  <rect x="618" y="326" width="488" height="282" rx="30" fill="#F8FAFC" fill-opacity="0.08" stroke="#F8FAFC" stroke-opacity="0.14"/>
  <rect x="660" y="372" width="140" height="18" rx="9" fill="#F8FAFC" fill-opacity="0.86"/>
  <rect x="660" y="420" width="182" height="86" rx="20" fill="#0F766E" fill-opacity="0.3"/>
  <rect x="684" y="448" width="82" height="12" rx="6" fill="#CCFBF1"/>
  <rect x="870" y="420" width="190" height="22" rx="11" fill="#E2E8F0" fill-opacity="0.2"/>
  <rect x="870" y="462" width="156" height="22" rx="11" fill="#E2E8F0" fill-opacity="0.2"/>
  <rect x="870" y="504" width="170" height="22" rx="11" fill="#E2E8F0" fill-opacity="0.2"/>
  <path d="M510 390C560 390 588 364 630 332" stroke="#C084FC" stroke-width="14" stroke-linecap="round" stroke-dasharray="18 16"/>
</svg>
