<svg width="1200" height="780" viewBox="0 0 1200 780" fill="none" xmlns="http://www.w3.org/2000/svg">
  <rect width="1200" height="780" rx="44" fill="#111827"/>
  <circle cx="1080" cy="120" r="190" fill="#F97316" fill-opacity="0.16"/>
  <circle cx="170" cy="640" r="200" fill="#06B6D4" fill-opacity="0.12"/>
  <rect x="82" y="92" width="510" height="248" rx="30" fill="#F8FAFC" fill-opacity="0.08" stroke="#F8FAFC" stroke-opacity="0.14"/>
  <rect x="122" y="132" width="148" height="18" rx="9" fill="#F8FAFC" fill-opacity="0.88"/>
  <rect x="122" y="174" width="268" height="14" rx="7" fill="#CBD5E1" fill-opacity="0.5"/>
  <rect x="122" y="220" width="122" height="74" rx="18" fill="#F97316" fill-opacity="0.28"/>
  <rect x="268" y="220" width="122" height="74" rx="18" fill="#A855F7" fill-opacity="0.28"/>
  <rect x="414" y="220" width="122" height="74" rx="18" fill="#06B6D4" fill-opacity="0.28"/>
  <rect x="662" y="106" width="454" height="554" rx="32" fill="#F8FAFC" fill-opacity="0.08" stroke="#F8FAFC" stroke-opacity="0.14"/>
  <rect x="708" y="148" width="178" height="18" rx="9" fill="#F8FAFC" fill-opacity="0.88"/>
  <rect x="708" y="190" width="250" height="14" rx="7" fill="#CBD5E1" fill-opacity="0.5"/>
  <path d="M742 272H1038" stroke="#E2E8F0" stroke-opacity="0.2" stroke-width="18" stroke-linecap="round"/>
  <path d="M742 332H1038" stroke="#E2E8F0" stroke-opacity="0.2" stroke-width="18" stroke-linecap="round"/>
  <rect x="742" y="392" width="148" height="110" rx="22" fill="#06B6D4" fill-opacity="0.26"/>
  <rect x="912" y="392" width="126" height="110" rx="22" fill="#F97316" fill-opacity="0.28"/>
  <rect x="742" y="530" width="296" height="24" rx="12" fill="#E2E8F0" fill-opacity="0.2"/>
  <path d="M356 416C444 416 494 388 574 324C609 296 644 280 681 280" stroke="#FDBA74" stroke-width="14" stroke-linecap="round" stroke-dasharray="18 16"/>
  <circle cx="356" cy="416" r="22" fill="#F97316"/>
  <circle cx="680" cy="280" r="22" fill="#06B6D4"/>
  <rect x="82" y="410" width="420" height="190" rx="30" fill="#F8FAFC" fill-opacity="0.08" stroke="#F8FAFC" stroke-opacity="0.14"/>
  <rect x="122" y="452" width="134" height="16" rx="8" fill="#F8FAFC" fill-opacity="0.86"/>
  <rect x="122" y="494" width="330" height="18" rx="9" fill="#E2E8F0" fill-opacity="0.2"/>
  <rect x="122" y="534" width="284" height="18" rx="9" fill="#E2E8F0" fill-opacity="0.2"/>
</svg>
