<svg width="1200" height="780" viewBox="0 0 1200 780" fill="none" xmlns="http://www.w3.org/2000/svg">
  <rect width="1200" height="780" rx="44" fill="#111827"/>
  <circle cx="1040" cy="120" r="180" fill="#22C55E" fill-opacity="0.14"/>
  <circle cx="180" cy="660" r="210" fill="#3B82F6" fill-opacity="0.12"/>
  <rect x="84" y="106" width="1032" height="164" rx="34" fill="#FFFFFF" fill-opacity="0.08" stroke="#FFFFFF" stroke-opacity="0.14"/>
  <rect x="132" y="150" width="190" height="18" rx="9" fill="#F8FAFC" fill-opacity="0.88"/>
  <rect x="132" y="194" width="276" height="14" rx="7" fill="#CBD5E1" fill-opacity="0.5"/>
  <rect x="744" y="144" width="308" height="88" rx="24" fill="#1E293B" stroke="#94A3B8" stroke-opacity="0.16"/>
  <path d="M782 188H940" stroke="#E2E8F0" stroke-opacity="0.24" stroke-width="14" stroke-linecap="round"/>
  <path d="M966 172H1002L1024 196" stroke="#DCFCE7" stroke-width="16" stroke-linecap="round" stroke-linejoin="round"/>
  <rect x="84" y="320" width="514" height="300" rx="34" fill="#FFFFFF" fill-opacity="0.08" stroke="#FFFFFF" stroke-opacity="0.14"/>
  <rect x="132" y="364" width="170" height="18" rx="9" fill="#F8FAFC" fill-opacity="0.88"/>
  <path d="M160 470C232 420 304 400 372 404C436 408 488 442 548 506" stroke="#60A5FA" stroke-width="14" stroke-linecap="round" stroke-dasharray="18 16"/>
  <circle cx="160" cy="470" r="20" fill="#3B82F6"/>
  <circle cx="548" cy="506" r="20" fill="#22C55E"/>
  <rect x="132" y="536" width="316" height="22" rx="11" fill="#E2E8F0" fill-opacity="0.2"/>
  <rect x="132" y="578" width="254" height="22" rx="11" fill="#E2E8F0" fill-opacity="0.2"/>
  <rect x="642" y="320" width="474" height="300" rx="34" fill="#FFFFFF" fill-opacity="0.08" stroke="#FFFFFF" stroke-opacity="0.14"/>
  <rect x="688" y="364" width="188" height="18" rx="9" fill="#F8FAFC" fill-opacity="0.88"/>
  <rect x="688" y="432" width="244" height="92" rx="22" fill="#1D4ED8" fill-opacity="0.26"/>
  <rect x="722" y="452" width="110" height="44" rx="12" fill="#DBEAFE" fill-opacity="0.86"/>
  <path d="M724 562H1046" stroke="#E2E8F0" stroke-opacity="0.2" stroke-width="18" stroke-linecap="round"/>
  <rect x="764" y="454" width="88" height="12" rx="6" fill="#1D4ED8"/>
  <rect x="950" y="424" width="128" height="94" rx="22" fill="#22C55E" fill-opacity="0.22"/>
  <path d="M984 466H1044" stroke="#DCFCE7" stroke-width="14" stroke-linecap="round"/>
  <path d="M984 498H1030" stroke="#DCFCE7" stroke-width="14" stroke-linecap="round" opacity="0.75"/>
  <rect x="256" y="480" width="182" height="74" rx="20" fill="#F59E0B" fill-opacity="0.22"/>
  <rect x="292" y="454" width="64" height="40" rx="10" fill="#FDE68A" fill-opacity="0.9"/>
  <circle cx="312" cy="566" r="18" fill="#111827"/>
  <circle cx="398" cy="566" r="18" fill="#111827"/>
</svg>
